<?xml version="1.0" encoding="utf-8"?>
<!-- Generator: Adobe Illustrator 24.1.2, SVG Export Plug-In . SVG Version: 6.00 Build 0)  -->
<svg version="1.1" id="TranExpo" xmlns="http://www.w3.org/2000/svg" xmlns:xlink="http://www.w3.org/1999/xlink" x="0px" y="0px"
	 viewBox="0 0 415 132" style="enable-background:new 0 0 415 132;" xml:space="preserve">
<style type="text/css">
	.st0{fill:#FF914D;}
	.st1{fill:#FFFFFF;}
</style>
<path d="M121.45,52.04c-0.01-3.08,0-6.16,0.01-9.24c10.82,0,21.64-0.01,32.46,0c0.01,3.08,0.01,6.16,0,9.24
	c-3.65,0.01-7.31,0.01-10.96,0.01c0,12.31,0,24.63,0,36.95c-3.52,0-7.03,0-10.54-0.01c0-12.31,0-24.63,0-36.94
	C128.76,52.05,125.11,52.05,121.45,52.04z"/>
<path d="M157.86,60.27c3.31-0.01,6.61-0.01,9.92,0c-0.02,1.36-0.04,2.73-0.05,4.1c3.43-4.84,10.14-6.36,15.26-3.26
	c-1.36,2.8-2.75,5.59-4.13,8.39c-3.44-2.28-9.5-2.09-10.71,2.62c-0.88,5.55-0.15,11.26-0.38,16.88c-3.3,0-6.61,0-9.91,0
	C157.86,79.42,157.85,69.84,157.86,60.27z"/>
<g>
	<path d="M189.29,62.26c5.14-4.07,13.1-3.64,17.96,0.69c-0.01-0.67-0.03-2.01-0.04-2.68c3.31-0.01,6.62-0.01,9.93,0
		c0.01,9.57,0,19.15,0,28.73c-3.27,0-6.54,0-9.81,0c0.01-0.82,0.03-2.44,0.04-3.26c-5.09,5.62-14.87,5.41-19.79-0.29
		C181.62,79.04,182.35,67.67,189.29,62.26z M197.47,68.71c-4.76,2.36-4.48,10.45,0.63,12.21c4.13,1.8,9.48-1.29,9.34-5.96
		C208.03,69.83,201.82,66.07,197.47,68.71z"/>
</g>
<path d="M223.86,60.27c3.3-0.01,6.6-0.01,9.9,0c0,0.76,0,2.29,0,3.06c5.72-6.59,18.8-4.37,20.74,4.5
	c0.53,7.03,0.07,14.11,0.22,21.16C251.41,89,248.1,89,244.8,89c-0.04-5.36,0.05-10.71-0.02-16.06c0.11-2.45-1.42-5.07-3.9-5.64
	c-3.39-0.82-7.18,2.11-7.09,5.62c-0.08,5.36,0.01,10.72-0.02,16.07c-3.3,0.01-6.61,0.01-9.91,0.01
	C223.86,79.42,223.85,69.84,223.86,60.27z"/>
<path class="st0" d="M261.11,42.8c8.81-0.02,17.61,0,26.42,0c0.03,3.07,0.03,6.15,0.01,9.23c-5.3,0.04-10.59,0-15.89,0.03
	c-0.02,3.04-0.01,6.09,0.01,9.14c5.07,0.03,10.14,0,15.21,0.02c0.02,3.08,0.02,6.16,0,9.24c-5.07,0.03-10.14-0.01-15.22,0.03
	c-0.02,3.08-0.01,6.18,0.01,9.27c5.29,0.01,10.58-0.01,15.87,0.01c0.02,3.07,0.03,6.14,0.02,9.21c-8.82,0.03-17.63,0.02-26.45,0.01
	C261.1,73.6,261.09,58.2,261.11,42.8z"/>
<g>
	<g>
		<g>
			<path class="st1" d="M57.12,67.85c7.58-7.58,15.19-15.14,22.78-22.7c7.61,7.56,15.22,15.12,22.8,22.72
				c-7.57,7.65-15.19,15.26-22.78,22.88C72.31,83.13,64.71,75.5,57.12,67.85z M60.84,67.85c6.34,6.43,12.71,12.84,19.08,19.25
				c6.37-6.4,12.72-12.81,19.05-19.23c-6.34-6.37-12.7-12.71-19.06-19.05C73.54,55.15,67.18,61.49,60.84,67.85z"/>
		</g>
		<path d="M11.82,67.85c16.52-16.45,32.96-32.97,49.56-49.34c4.3,4.07,8.37,8.39,12.61,12.52C61.67,43.31,49.36,55.59,37.05,67.87
			c12.29,12.34,24.63,24.65,36.93,37.01c-4.16,4.06-8.15,8.3-12.37,12.29l-0.51-0.01C44.6,100.81,28.26,84.28,11.82,67.85z"/>
		<g>
			<path class="st0" d="M49.77,67.85c10.15-10.14,20.3-20.29,30.48-30.4c10.15,10.14,20.29,20.28,30.44,30.41
				c-10.15,10.21-20.29,20.41-30.47,30.59C70.07,88.24,59.91,78.07,49.77,67.85z M57.12,67.85c7.59,7.64,15.19,15.28,22.8,22.9
				c7.59-7.62,15.21-15.23,22.78-22.88c-7.58-7.6-15.19-15.16-22.8-22.72C72.31,52.72,64.69,60.27,57.12,67.85z"/>
		</g>
	</g>
	<path class="st0" d="M60.84,67.85c6.34-6.36,12.7-12.7,19.06-19.03c6.37,6.34,12.73,12.68,19.06,19.05
		c-6.33,6.43-12.68,12.84-19.05,19.23C73.55,80.68,67.18,74.28,60.84,67.85z"/>
</g>
<path class="st0" d="M291.76,60.27c3.87-0.02,7.75-0.04,11.62,0.03c1.62,2.23,3.28,4.42,4.94,6.63c1.65-2.24,3.32-4.45,4.99-6.67
	c3.85,0,7.71-0.01,11.57,0.01c-3.48,4.58-7.03,9.12-10.5,13.71c4.05,5.02,8.16,10,12.23,15.01c-3.95,0.03-7.9-0.03-11.84,0.06
	c-2.26-2.63-4.28-5.44-6.44-8.15c-2.15,2.68-4.22,5.41-6.36,8.1c-3.99,0-7.97,0.01-11.96-0.01c4.06-5.01,8.18-9.98,12.23-15
	C298.77,69.39,295.22,64.86,291.76,60.27z"/>
<path class="st0" d="M330.11,60.27c3.26-0.01,6.51-0.02,9.77-0.01c0.01,0.79,0.03,2.37,0.04,3.16c4.76-4.96,13.27-5.33,18.45-0.84
	c6.83,5.74,7.07,17.32,0.68,23.47c-5,5.09-13.81,4.92-19.07,0.31c0.07,5.73,0.04,11.47,0.02,17.2c-3.3,0.01-6.59,0.01-9.89,0
	C330.09,89.13,330.09,74.7,330.11,60.27z M344.15,68.26c-5.06,1.51-5.87,9.24-1.48,11.99c4.04,2.97,10.58-0.11,10.49-5.22
	C353.82,70.23,348.53,66.52,344.15,68.26z"/>
<g>
	<path class="st0" d="M376.42,60.67c8.77-3.45,20.86,0.17,23.74,9.8c2.5,7.7-2.52,16.33-10.21,18.44c-8.32,2.68-19.56-0.09-22.79-9
		C364.11,72.26,368.68,63.17,376.42,60.67z M381.23,68.27c-4.8,1.44-5.94,8.5-2.15,11.61c3.63,3.17,10.39,1.15,10.99-3.87
		C391.36,71.06,385.98,66.35,381.23,68.27z"/>
</g>
</svg>
