<?xml version="1.0" encoding="utf-8"?>
<!-- Generator: Adobe Illustrator 24.1.2, SVG Export Plug-In . SVG Version: 6.00 Build 0)  -->
<svg version="1.1" id="TranExpo" xmlns="http://www.w3.org/2000/svg" xmlns:xlink="http://www.w3.org/1999/xlink" x="0px" y="0px"
	 viewBox="0 0 415 132" style="enable-background:new 0 0 415 132;" xml:space="preserve">
<style type="text/css">
	.st0{fill:#FFFFFF;}
	.st1{fill:#FF914D;}
</style>
<path class="st0" d="M121.4,52c0-3.1,0-6.2,0-9.2c10.8,0,21.6,0,32.5,0c0,3.1,0,6.2,0,9.2c-3.6,0-7.3,0-11,0c0,12.3,0,24.6,0,37
	c-3.5,0-7,0-10.5,0c0-12.3,0-24.6,0-36.9C128.8,52,125.1,52,121.4,52z"/>
<path class="st0" d="M163,60.3c2.6,0,5.3,0,7.9,0c0,1.4,0,2.7,0,4.1c2.7-4.8,8.1-6.4,12.1-3.3c-1.1,2.8-2.2,5.6-3.3,8.4
	c-2.7-2.3-7.6-2.1-8.5,2.6c-0.7,5.6-0.1,11.3-0.3,16.9c-2.6,0-5.3,0-7.9,0C163,79.4,163,69.8,163,60.3z"/>
<g>
	<path class="st0" d="M189.3,62.3c5.1-4.1,13.1-3.6,18,0.7c0-0.7,0-2,0-2.7c3.3,0,6.6,0,9.9,0c0,9.6,0,19.2,0,28.7
		c-3.3,0-6.5,0-9.8,0c0-0.8,0-2.4,0-3.3c-5.1,5.6-14.9,5.4-19.8-0.3C181.6,79,182.4,67.7,189.3,62.3z M197.5,68.7
		c-4.8,2.4-4.5,10.4,0.6,12.2c4.1,1.8,9.5-1.3,9.3-6C208,69.8,201.8,66.1,197.5,68.7z"/>
</g>
<path class="st0" d="M223.9,60.3c3.3,0,6.6,0,9.9,0c0,0.8,0,2.3,0,3.1c5.7-6.6,18.8-4.4,20.7,4.5c0.5,7,0.1,14.1,0.2,21.2
	c-3.3,0-6.6,0-9.9,0c0-5.4,0.1-10.7,0-16.1c0.1-2.4-1.4-5.1-3.9-5.6c-3.4-0.8-7.2,2.1-7.1,5.6c-0.1,5.4,0,10.7,0,16.1
	c-3.3,0-6.6,0-9.9,0C223.9,79.4,223.9,69.8,223.9,60.3z"/>
<path class="st1" d="M261.1,42.8c8.8,0,17.6,0,26.4,0c0,3.1,0,6.2,0,9.2c-5.3,0-10.6,0-15.9,0c0,3,0,6.1,0,9.1c5.1,0,10.1,0,15.2,0
	c0,3.1,0,6.2,0,9.2c-5.1,0-10.1,0-15.2,0c0,3.1,0,6.2,0,9.3c5.3,0,10.6,0,15.9,0c0,3.1,0,6.1,0,9.2c-8.8,0-17.6,0-26.5,0
	C261.1,73.6,261.1,58.2,261.1,42.8z"/>
<g>
	<g>
		<g>
			<path class="st0" d="M57.1,67.8c7.6-7.6,15.2-15.1,22.8-22.7c7.6,7.6,15.2,15.1,22.8,22.7c-7.6,7.7-15.2,15.3-22.8,22.9
				C72.3,83.1,64.7,75.5,57.1,67.8z M60.8,67.8c6.3,6.4,12.7,12.8,19.1,19.3c6.4-6.4,12.7-12.8,19.1-19.2
				c-6.3-6.4-12.7-12.7-19.1-19C73.5,55.2,67.2,61.5,60.8,67.8z"/>
		</g>
		<path class="st0" d="M11.8,67.8c16.5-16.5,33-33,49.6-49.3c4.3,4.1,8.4,8.4,12.6,12.5C61.7,43.3,49.4,55.6,37,67.9
			c12.3,12.3,24.6,24.7,36.9,37c-4.2,4.1-8.2,8.3-12.4,12.3l-0.5,0C44.6,100.8,28.3,84.3,11.8,67.8z"/>
		<g>
			<path class="st1" d="M49.8,67.8c10.1-10.1,20.3-20.3,30.5-30.4c10.2,10.1,20.3,20.3,30.4,30.4c-10.2,10.2-20.3,20.4-30.5,30.6
				C70.1,88.2,59.9,78.1,49.8,67.8z M57.1,67.8c7.6,7.6,15.2,15.3,22.8,22.9c7.6-7.6,15.2-15.2,22.8-22.9
				c-7.6-7.6-15.2-15.2-22.8-22.7C72.3,52.7,64.7,60.3,57.1,67.8z"/>
		</g>
	</g>
	<path class="st1" d="M60.8,67.8c6.3-6.4,12.7-12.7,19.1-19c6.4,6.3,12.7,12.7,19.1,19c-6.3,6.4-12.7,12.8-19,19.2
		C73.6,80.7,67.2,74.3,60.8,67.8z"/>
</g>
<path class="st1" d="M291.8,60.3c3.9,0,7.8,0,11.6,0c1.6,2.2,3.3,4.4,4.9,6.6c1.6-2.2,3.3-4.5,5-6.7c3.9,0,7.7,0,11.6,0
	c-3.5,4.6-7,9.1-10.5,13.7c4,5,8.2,10,12.2,15c-4,0-7.9,0-11.8,0.1c-2.3-2.6-4.3-5.4-6.4-8.2c-2.1,2.7-4.2,5.4-6.4,8.1
	c-4,0-8,0-12,0c4.1-5,8.2-10,12.2-15C298.8,69.4,295.2,64.9,291.8,60.3z"/>
<path class="st1" d="M330.1,60.3c3.3,0,6.5,0,9.8,0c0,0.8,0,2.4,0,3.2c4.8-5,13.3-5.3,18.5-0.8c6.8,5.7,7.1,17.3,0.7,23.5
	c-5,5.1-13.8,4.9-19.1,0.3c0.1,5.7,0,11.5,0,17.2c-3.3,0-6.6,0-9.9,0C330.1,89.1,330.1,74.7,330.1,60.3z M344.1,68.3
	c-5.1,1.5-5.9,9.2-1.5,12c4,3,10.6-0.1,10.5-5.2C353.8,70.2,348.5,66.5,344.1,68.3z"/>
<g>
	<path class="st1" d="M376.4,60.7c8.8-3.5,20.9,0.2,23.7,9.8c2.5,7.7-2.5,16.3-10.2,18.4c-8.3,2.7-19.6-0.1-22.8-9
		C364.1,72.3,368.7,63.2,376.4,60.7z M381.2,68.3c-4.8,1.4-5.9,8.5-2.1,11.6c3.6,3.2,10.4,1.2,11-3.9
		C391.4,71.1,386,66.3,381.2,68.3z"/>
</g>
</svg>
